<svg xmlns="http://www.w3.org/2000/svg" xmlns:xlink="http://www.w3.org/1999/xlink" width="1200" height="1200" viewBox="0 0 1200 1200"><g><g transform="translate(600 600) scale(0.69 0.69) rotate(0) translate(-600 -600)" style="fill:#FFF200"><svg fill="#FFF200" xmlns="http://www.w3.org/2000/svg" xmlns:xlink="http://www.w3.org/1999/xlink" version="1.1" x="0px" y="0px" viewBox="0 0 100 100" enable-background="new 0 0 100 100" xml:space="preserve"><path d="M35.9,89.8l40.6-17c3.8,2.6,9.3,6.3,13.1,8.8c4.8,3.1,8.2,2.5,9.7,0.1c1.6-2.4,0.7-5.6-4.1-8.7c-3.8-2.5-9.4-6.2-13.3-8.6  l-1.1-28.6c0,0-2.5,4.7-8.7,1.7c-1,1.9-3.4,2.3-3.4,2.3L64.9,54L44.2,42.1l-0.6-13.6l-4-2.6l-4.3,14.3L24,49.8l4,2.6l12.7-5  l19.4,13.9L29.2,85.4l5.8,3.7"></path><path d="M56.4,15.8c0.6,0.8,0.8,1.2,1.4,2.5c0.7,1.5,0.9,1.9,1.1,3.1c0.3,1.2,0.4,2.5,0.2,3.5c-0.1,0.5-0.2,0.9-0.3,0.9  c-0.2,0-0.6-0.4-1-0.9c-0.2-0.2-0.4-0.5-0.4-0.5c0-0.1-0.2,1.7-0.1,2.8c0.1,1.8,0.4,3.2,1.1,4.7c0.4,0.9,0.7,1.3,1.3,2  c1.5,1.7,3.6,2.9,5.9,3.3c0.8,0.2,1.9,0.1,2.3-0.1c0.2-0.1,0.1-0.2-0.2-0.4c-0.6-0.5-1.3-1.3-1.7-2c-0.4-0.7-1-1.9-1.2-2.8  c-0.3-1.1-0.3-2.3-0.2-3.5c0-0.4,0.3-1.7,0.4-2c0-0.1,0.1,0,0.4,0.1c1.8,0.7,3.4,2.5,4.1,4.5c0.5,1.3,0.8,2.7,0.8,4.2  c0,0.4,0,0.8,0,0.8c0.1,0,0.7-0.8,1-1.2c0.1-0.2,0.3-0.4,0.3-0.4s0.1,0,0.2,0.2c1.1,1,2.7,1.7,4.7,1.7c0.3,0,0.5,0,0.5,0  c0-0.1-0.2-0.2-0.4-0.4c-0.5-0.4-1.1-1-1.5-1.5c-0.4-0.6-0.9-1.8-1.1-2.3c-0.2-0.9-0.1-1.9,0-2.5l0.1-0.3l0.3,0.1  c0.4,0.1,1.1,0.7,1.6,1c1.5,1.1,2.4,2.6,2.6,4.5c0.1,0.4,0.1,0.7,0.1,0.7c0.1,0,0.5-0.3,0.8-0.7c0.3-0.5,0.6-1,0.9-1.6  c0.5-1.3,0.5-2.6,0.2-4c-0.2-0.6-0.7-1.7-1-2.2c-0.7-1.1-1.7-2-2.9-2.7l-0.3-0.1l0,0.2c0,0.1,0,0.3,0.1,0.4c0.1,0.4,0.1,0.7,0,0.8  s-0.5-0.2-0.9-0.5c-0.8-0.4-1.5-1.3-2.1-2.2c-0.3-0.5-1.1-2-1.3-2.7c0-0.3-0.2-0.6-0.2-0.6s-0.2,0.3-0.4,0.8c-0.3,0.8-0.7,2-0.9,2.8  l-0.1,0.3l-0.3-0.3c-0.2-0.1-0.5-0.4-0.8-0.7C66.6,20,62.1,17.6,56.4,15.8L56,15.8L56.4,15.8z"></path><path d="M14.7,10.5l22,16.6l0.7-2.3L15.1,10.2L14.7,10.5z"></path><path d="M0,32l22,16.6l2-1.5L0.4,31.8L0,32z"></path><path d="M13.5,25.2l18.5,14l1-0.5l0.3-1L13.9,25L13.5,25.2z"></path><path d="M16.5,57.9l22,16.6l2-1.5L16.9,57.6L16.5,57.9z"></path></svg></g></g></svg>